{
  "accessors": [
    {
      "bufferView": 2,
      "componentType": 5126,
      "count": 3188,
      "max": [
        0.57136863470077515,
        -0.70519310235977173,
        0.67938262224197388
      ],
      "min": [
        -0.57136863470077515,
        -1,
        -0.50274783372879028
      ],
      "type": "VEC3"
    },
    {
      "bufferView": 2,
      "byteOffset": 38256,
      "componentType": 5126,
      "count": 3188,
      "max": [
        0.9999268651008606,
        1,
        1
      ],
      "min": [
        -0.9999268651008606,
        -1,
        -1
      ],
      "type": "VEC3"
    },
    {
      "bufferView": 3,
      "componentType": 5126,
      "count": 3188,
      "max": [
        1,
        0.9997180700302124,
        0.99996477365493774,
        -1
      ],
      "min": [
        -0.99999994039535522,
        -0.99980819225311279,
        -0.99995148181915283,
        -1
      ],
      "type": "VEC4"
    },
    {
      "bufferView": 1,
      "componentType": 5126,
      "count": 3188,
      "max": [
        0.46574369072914124,
        0.99804586172103882
      ],
      "min": [
        0.15311640501022339,
        0.8968614935874939
      ],
      "type": "VEC2"
    },
    {
      "bufferView": 1,
      "byteOffset": 25504,
      "componentType": 5126,
      "count": 3188,
      "max": [
        0.46574369072914124,
        0.99804586172103882
      ],
      "min": [
        0.15311640501022339,
        0.8968614935874939
      ],
      "type": "VEC2"
    },
    {
      "bufferView": 1,
      "byteOffset": 51008,
      "componentType": 5126,
      "count": 3188,
      "max": [
        0.46574369072914124,
        0.99804586172103882
      ],
      "min": [
        0.15311640501022339,
        0.8968614935874939
      ],
      "type": "VEC2"
    },
    {
      "bufferView": 1,
      "byteOffset": 76512,
      "componentType": 5126,
      "count": 3188,
      "max": [
        0.46574369072914124,
        0.99804586172103882
      ],
      "min": [
        0.15311640501022339,
        0.8968614935874939
      ],
      "type": "VEC2"
    },
    {
      "bufferView": 1,
      "byteOffset": 102016,
      "componentType": 5126,
      "count": 3188,
      "max": [
        0.46574369072914124,
        0.99804586172103882
      ],
      "min": [
        0.15311640501022339,
        0.8968614935874939
      ],
      "type": "VEC2"
    },
    {
      "bufferView": 0,
      "componentType": 5125,
      "count": 17664,
      "max": [
        3187
      ],
      "min": [
        0
      ],
      "type": "SCALAR"
    },
    {
      "bufferView": 2,
      "byteOffset": 76512,
      "componentType": 5126,
      "count": 22087,
      "max": [
        0.77827316522598267,
        1,
        0.71110260486602783
      ],
      "min": [
        -0.77827316522598267,
        -0.86524349451065063,
        -0.71110260486602783
      ],
      "type": "VEC3"
    },
    {
      "bufferView": 2,
      "byteOffset": 341556,
      "componentType": 5126,
      "count": 22087,
      "max": [
        1,
        0.99999988079071045,
        1
      ],
      "min": [
        -1,
        -1,
        -1
      ],
      "type": "VEC3"
    },
    {
      "bufferView": 1,
      "byteOffset": 127520,
      "componentType": 5126,
      "count": 22087,
      "max": [
        0.998046875,
        0.99804586172103882
      ],
      "min": [
        0.001953125,
        0.030080080032348633
      ],
      "type": "VEC2"
    },
    {
      "bufferView": 1,
      "byteOffset": 304216,
      "componentType": 5126,
      "count": 22087,
      "max": [
        0.998046875,
        0.99804586172103882
      ],
      "min": [
        0.001953125,
        0.030080080032348633
      ],
      "type": "VEC2"
    },
    {
      "bufferView": 1,
      "byteOffset": 480912,
      "componentType": 5126,
      "count": 22087,
      "max": [
        0.998046875,
        0.99804586172103882
      ],
      "min": [
        0.001953125,
        0.030080080032348633
      ],
      "type": "VEC2"
    },
    {
      "bufferView": 1,
      "byteOffset": 657608,
      "componentType": 5126,
      "count": 22087,
      "max": [
        0.998046875,
        0.99804586172103882
      ],
      "min": [
        0.001953125,
        0.030080080032348633
      ],
      "type": "VEC2"
    },
    {
      "bufferView": 1,
      "byteOffset": 834304,
      "componentType": 5126,
      "count": 22087,
      "max": [
        0.998046875,
        0.99804586172103882
      ],
      "min": [
        0.001953125,
        0.030080080032348633
      ],
      "type": "VEC2"
    },
    {
      "bufferView": 0,
      "byteOffset": 70656,
      "componentType": 5125,
      "count": 125130,
      "max": [
        22086
      ],
      "min": [
        0
      ],
      "type": "SCALAR"
    },
    {
      "bufferView": 2,
      "byteOffset": 606600,
      "componentType": 5126,
      "count": 360,
      "max": [
        0.26785564422607422,
        -0.46097221970558167,
        -0.34145393967628479
      ],
      "min": [
        -0.26785564422607422,
        -0.47838783264160156,
        -0.35409915447235107
      ],
      "type": "VEC3"
    },
    {
      "bufferView": 2,
      "byteOffset": 610920,
      "componentType": 5126,
      "count": 360,
      "max": [
        0.031999994069337845,
        0.99195152521133423,
        1
      ],
      "min": [
        -0.031999994069337845,
        -0.99999862909317017,
        -1
      ],
      "type": "VEC3"
    },
    {
      "bufferView": 1,
      "byteOffset": 1011000,
      "componentType": 5126,
      "count": 360,
      "max": [
        0.25985351204872131,
        0.99804586172103882
      ],
      "min": [
        0.1861833930015564,
        0.94755572080612183
      ],
      "type": "VEC2"
    },
    {
      "bufferView": 0,
      "byteOffset": 571176,
      "componentType": 5125,
      "count": 1848,
      "max": [
        359
      ],
      "min": [
        0
      ],
      "type": "SCALAR"
    },
    {
      "bufferView": 2,
      "byteOffset": 615240,
      "componentType": 5126,
      "count": 35716,
      "max": [
        0.78905409574508667,
        0.88431620597839355,
        0.69493067264556885
      ],
      "min": [
        -0.78905409574508667,
        -0.87374258041381836,
        -0.69161415100097656
      ],
      "type": "VEC3"
    },
    {
      "bufferView": 2,
      "byteOffset": 1043832,
      "componentType": 5126,
      "count": 35716,
      "max": [
        0.99999862909317017,
        0.99999988079071045,
        1
      ],
      "min": [
        -0.99999862909317017,
        -1,
        -0.9999733567237854
      ],
      "type": "VEC3"
    },
    {
      "bufferView": 1,
      "byteOffset": 1013880,
      "componentType": 5126,
      "count": 35716,
      "max": [
        0.87375307083129883,
        0.998046875
      ],
      "min": [
        0.001953125,
        0.071344196796417236
      ],
      "type": "VEC2"
    },
    {
      "bufferView": 1,
      "byteOffset": 1299608,
      "componentType": 5126,
      "count": 35716,
      "max": [
        0.87375307083129883,
        0.998046875
      ],
      "min": [
        0.001953125,
        0.071344196796417236
      ],
      "type": "VEC2"
    },
    {
      "bufferView": 1,
      "byteOffset": 1585336,
      "componentType": 5126,
      "count": 35716,
      "max": [
        0.87375307083129883,
        0.998046875
      ],
      "min": [
        0.001953125,
        0.071344196796417236
      ],
      "type": "VEC2"
    },
    {
      "bufferView": 1,
      "byteOffset": 1871064,
      "componentType": 5126,
      "count": 35716,
      "max": [
        0.87375307083129883,
        0.998046875
      ],
      "min": [
        0.001953125,
        0.071344196796417236
      ],
      "type": "VEC2"
    },
    {
      "bufferView": 1,
      "byteOffset": 2156792,
      "componentType": 5126,
      "count": 35716,
      "max": [
        0.87375307083129883,
        0.998046875
      ],
      "min": [
        0.001953125,
        0.071344196796417236
      ],
      "type": "VEC2"
    },
    {
      "bufferView": 0,
      "byteOffset": 578568,
      "componentType": 5125,
      "count": 206106,
      "max": [
        35715
      ],
      "min": [
        0
      ],
      "type": "SCALAR"
    }
  ],
  "asset": {
    "extras": {
      "author": "maxsbond.work (https://sketchfab.com/maxsbond.work)",
      "license": "CC-BY-4.0 (http://creativecommons.org/licenses/by/4.0/)",
      "source": "https://sketchfab.com/3d-models/living-room-sofa-086be698bca14d7791d9032884909954",
      "title": "Living room sofa"
    },
    "generator": "Sketchfab-9.28.2",
    "version": "2.0"
  },
  "bufferViews": [
    {
      "buffer": 0,
      "byteLength": 1402992,
      "byteOffset": 0,
      "name": "floatBufferViews",
      "target": 34963
    },
    {
      "buffer": 0,
      "byteLength": 2442520,
      "byteOffset": 1402992,
      "byteStride": 8,
      "name": "floatBufferViews",
      "target": 34962
    },
    {
      "buffer": 0,
      "byteLength": 1472424,
      "byteOffset": 3845512,
      "byteStride": 12,
      "name": "floatBufferViews",
      "target": 34962
    },
    {
      "buffer": 0,
      "byteLength": 51008,
      "byteOffset": 5317936,
      "byteStride": 16,
      "name": "floatBufferViews",
      "target": 34962
    }
  ],
  "buffers": [
    {
      "byteLength": 5368944,
      "uri": "scene.bin"
    }
  ],
  "images": [
    {
      "uri": "textures/Wood_baseColor.png"
    },
    {
      "uri": "textures/Wood_metallicRoughness.png"
    },
    {
      "uri": "textures/Wood_normal.png"
    },
    {
      "uri": "textures/Fabric_baseColor.png"
    },
    {
      "uri": "textures/Fabric_metallicRoughness.png"
    },
    {
      "uri": "textures/Leather_baseColor.png"
    },
    {
      "uri": "textures/Leather_metallicRoughness.png"
    }
  ],
  "materials": [
    {
      "doubleSided": false,
      "emissiveFactor": [
        0,
        0,
        0
      ],
      "name": "Wood",
      "normalTexture": {
        "index": 2,
        "scale": 1,
        "texCoord": 0
      },
      "occlusionTexture": {
        "index": 1,
        "strength": 1,
        "texCoord": 0
      },
      "pbrMetallicRoughness": {
        "baseColorFactor": [
          1,
          1,
          1,
          1
        ],
        "baseColorTexture": {
          "index": 0,
          "texCoord": 0
        },
        "metallicFactor": 1,
        "metallicRoughnessTexture": {
          "index": 1,
          "texCoord": 0
        },
        "roughnessFactor": 1
      }
    },
    {
      "doubleSided": false,
      "emissiveFactor": [
        0,
        0,
        0
      ],
      "name": "Fabric",
      "occlusionTexture": {
        "index": 4,
        "strength": 1,
        "texCoord": 0
      },
      "pbrMetallicRoughness": {
        "baseColorFactor": [
          1,
          1,
          1,
          1
        ],
        "baseColorTexture": {
          "index": 3,
          "texCoord": 0
        },
        "metallicFactor": 1,
        "metallicRoughnessTexture": {
          "index": 4,
          "texCoord": 0
        },
        "roughnessFactor": 1
      }
    },
    {
      "doubleSided": false,
      "emissiveFactor": [
        0,
        0,
        0
      ],
      "name": "Base",
      "pbrMetallicRoughness": {
        "baseColorFactor": [
          1,
          1,
          1,
          1
        ],
        "metallicFactor": 1,
        "roughnessFactor": 1
      }
    },
    {
      "doubleSided": false,
      "emissiveFactor": [
        0,
        0,
        0
      ],
      "name": "Leather",
      "occlusionTexture": {
        "index": 6,
        "strength": 1,
        "texCoord": 0
      },
      "pbrMetallicRoughness": {
        "baseColorFactor": [
          1,
          1,
          1,
          1
        ],
        "baseColorTexture": {
          "index": 5,
          "texCoord": 0
        },
        "metallicFactor": 1,
        "metallicRoughnessTexture": {
          "index": 6,
          "texCoord": 0
        },
        "roughnessFactor": 1
      }
    }
  ],
  "meshes": [
    {
      "primitives": [
        {
          "attributes": {
            "NORMAL": 1,
            "POSITION": 0,
            "TANGENT": 2,
            "TEXCOORD_0": 3,
            "TEXCOORD_1": 4,
            "TEXCOORD_2": 5,
            "TEXCOORD_3": 6,
            "TEXCOORD_4": 7
          },
          "indices": 8,
          "material": 0,
          "mode": 4
        }
      ]
    },
    {
      "primitives": [
        {
          "attributes": {
            "NORMAL": 10,
            "POSITION": 9,
            "TEXCOORD_0": 11,
            "TEXCOORD_1": 12,
            "TEXCOORD_2": 13,
            "TEXCOORD_3": 14,
            "TEXCOORD_4": 15
          },
          "indices": 16,
          "material": 1,
          "mode": 4
        }
      ]
    },
    {
      "primitives": [
        {
          "attributes": {
            "NORMAL": 18,
            "POSITION": 17,
            "TEXCOORD_0": 19
          },
          "indices": 20,
          "material": 2,
          "mode": 4
        }
      ]
    },
    {
      "primitives": [
        {
          "attributes": {
            "NORMAL": 22,
            "POSITION": 21,
            "TEXCOORD_0": 23,
            "TEXCOORD_1": 24,
            "TEXCOORD_2": 25,
            "TEXCOORD_3": 26,
            "TEXCOORD_4": 27
          },
          "indices": 28,
          "material": 3,
          "mode": 4
        }
      ]
    }
  ],
  "nodes": [
    {
      "children": [
        1
      ],
      "name": "RootNode (gltf orientation matrix)",
      "rotation": [
        -0.70710678118654746,
        -0,
        -0,
        0.70710678118654757
      ]
    },
    {
      "children": [
        2
      ],
      "name": "RootNode (model correction matrix)"
    },
    {
      "children": [
        3
      ],
      "name": "root"
    },
    {
      "children": [
        4
      ],
      "matrix": [
        1,
        0,
        0,
        0,
        0,
        2.2204460492503131e-16,
        1,
        0,
        0,
        -1,
        2.2204460492503131e-16,
        0,
        0,
        0,
        0,
        1
      ],
      "name": "GLTF_SceneRootNode"
    },
    {
      "children": [
        5
      ],
      "matrix": [
        17.454898834228516,
        0,
        0,
        0,
        0,
        17.454898834228516,
        0,
        0,
        0,
        0,
        17.454898834228516,
        0,
        0,
        17.469379425048828,
        -0.31482505798339844,
        1
      ],
      "name": "Sofa.obj_0"
    },
    {
      "children": [
        6,
        8,
        10,
        12
      ],
      "name": "g _Mesh_1"
    },
    {
      "children": [
        7
      ],
      "name": "_Mesh_2"
    },
    {
      "mesh": 0,
      "name": ""
    },
    {
      "children": [
        9
      ],
      "name": "_Mesh_3"
    },
    {
      "mesh": 1,
      "name": ""
    },
    {
      "children": [
        11
      ],
      "name": "_Mesh_4"
    },
    {
      "mesh": 2,
      "name": ""
    },
    {
      "children": [
        13
      ],
      "name": "_Mesh_5"
    },
    {
      "mesh": 3,
      "name": ""
    }
  ],
  "samplers": [
    {
      "magFilter": 9729,
      "minFilter": 9987,
      "wrapS": 10497,
      "wrapT": 10497
    }
  ],
  "scene": 0,
  "scenes": [
    {
      "name": "OSG_Scene",
      "nodes": [
        0
      ]
    }
  ],
  "textures": [
    {
      "sampler": 0,
      "source": 0
    },
    {
      "sampler": 0,
      "source": 1
    },
    {
      "sampler": 0,
      "source": 2
    },
    {
      "sampler": 0,
      "source": 3
    },
    {
      "sampler": 0,
      "source": 4
    },
    {
      "sampler": 0,
      "source": 5
    },
    {
      "sampler": 0,
      "source": 6
    }
  ]
}

