{
  "accessors": [
    {
      "bufferView": 2,
      "componentType": 5126,
      "count": 168,
      "max": [
        0.82276099920272827,
        1.0206090211868286,
        0.34479600191116333
      ],
      "min": [
        -0.83130800724029541,
        -1.0315109491348267,
        0.062343999743461609
      ],
      "type": "VEC3"
    },
    {
      "bufferView": 2,
      "byteOffset": 2016,
      "componentType": 5126,
      "count": 168,
      "max": [
        1,
        1,
        1
      ],
      "min": [
        -1,
        -1,
        -1
      ],
      "type": "VEC3"
    },
    {
      "bufferView": 3,
      "componentType": 5126,
      "count": 168,
      "max": [
        1,
        2.9532167900470085e-05,
        1,
        1
      ],
      "min": [
        -1,
        -3.320527684991248e-05,
        0,
        -1
      ],
      "type": "VEC4"
    },
    {
      "bufferView": 1,
      "componentType": 5126,
      "count": 168,
      "max": [
        0.98991298675537109,
        0.97758597135543823
      ],
      "min": [
        0.011051000095903873,
        0.01675800047814846
      ],
      "type": "VEC2"
    },
    {
      "bufferView": 0,
      "componentType": 5125,
      "count": 312,
      "max": [
        167
      ],
      "min": [
        0
      ],
      "type": "SCALAR"
    },
    {
      "bufferView": 2,
      "byteOffset": 4032,
      "componentType": 5126,
      "count": 1186,
      "max": [
        0.82117098569869995,
        0.99751400947570801,
        0.41541400551795959
      ],
      "min": [
        -0.79970502853393555,
        -1.0012979507446289,
        0.19461099803447723
      ],
      "type": "VEC3"
    },
    {
      "bufferView": 2,
      "byteOffset": 18264,
      "componentType": 5126,
      "count": 1186,
      "max": [
        0.99997210502624512,
        0.99995332956314087,
        0.9999995231628418
      ],
      "min": [
        -0.99932301044464111,
        -0.99996823072433472,
        -1
      ],
      "type": "VEC3"
    },
    {
      "bufferView": 1,
      "byteOffset": 1344,
      "componentType": 5126,
      "count": 1186,
      "max": [
        0.99800801277160645,
        0.98855102062225342
      ],
      "min": [
        0.0019920000340789557,
        0.0019729998894035816
      ],
      "type": "VEC2"
    },
    {
      "bufferView": 0,
      "byteOffset": 1248,
      "componentType": 5125,
      "count": 6048,
      "max": [
        1185
      ],
      "min": [
        0
      ],
      "type": "SCALAR"
    },
    {
      "bufferView": 2,
      "byteOffset": 32496,
      "componentType": 5126,
      "count": 1519,
      "max": [
        0.83094102144241333,
        0.67848801612854004,
        0.54683399200439453
      ],
      "min": [
        -0.82275497913360596,
        0.10918600112199783,
        0.30575200915336609
      ],
      "type": "VEC3"
    },
    {
      "bufferView": 2,
      "byteOffset": 50724,
      "componentType": 5126,
      "count": 1519,
      "max": [
        0.99988067150115967,
        0.99973112344741821,
        0.99996322393417358
      ],
      "min": [
        -0.99986535310745239,
        -0.99973613023757935,
        -0.99825209379196167
      ],
      "type": "VEC3"
    },
    {
      "bufferView": 1,
      "byteOffset": 10832,
      "componentType": 5126,
      "count": 1519,
      "max": [
        0.97511202096939087,
        0.96886301040649414
      ],
      "min": [
        0.017240000888705254,
        0.025631999596953392
      ],
      "type": "VEC2"
    },
    {
      "bufferView": 0,
      "byteOffset": 25440,
      "componentType": 5125,
      "count": 8283,
      "max": [
        1518
      ],
      "min": [
        0
      ],
      "type": "SCALAR"
    },
    {
      "bufferView": 2,
      "byteOffset": 68952,
      "componentType": 5126,
      "count": 1455,
      "max": [
        0.89465802907943726,
        -0.9928709864616394,
        0.713267982006073
      ],
      "min": [
        -0.89094197750091553,
        -1.0899419784545898,
        0.013344000093638897
      ],
      "type": "VEC3"
    },
    {
      "bufferView": 2,
      "byteOffset": 86412,
      "componentType": 5126,
      "count": 1455,
      "max": [
        1,
        1,
        1
      ],
      "min": [
        -1,
        -1,
        -1
      ],
      "type": "VEC3"
    },
    {
      "bufferView": 3,
      "byteOffset": 2688,
      "componentType": 5126,
      "count": 1455,
      "max": [
        1,
        1,
        1,
        1
      ],
      "min": [
        -1,
        -1,
        -1,
        -1
      ],
      "type": "VEC4"
    },
    {
      "bufferView": 1,
      "byteOffset": 22984,
      "componentType": 5126,
      "count": 1455,
      "max": [
        0.99216902256011963,
        0.98901301622390747
      ],
      "min": [
        0.0094750002026557922,
        0.01258500013500452
      ],
      "type": "VEC2"
    },
    {
      "bufferView": 0,
      "byteOffset": 58572,
      "componentType": 5125,
      "count": 4344,
      "max": [
        1454
      ],
      "min": [
        0
      ],
      "type": "SCALAR"
    },
    {
      "bufferView": 2,
      "byteOffset": 103872,
      "componentType": 5126,
      "count": 9994,
      "max": [
        0.89148998260498047,
        1.0899419784545898,
        1.1656589508056641
      ],
      "min": [
        -0.89465802907943726,
        0.99333798885345459,
        0.065540000796318054
      ],
      "type": "VEC3"
    },
    {
      "bufferView": 2,
      "byteOffset": 223800,
      "componentType": 5126,
      "count": 9994,
      "max": [
        0.99992036819458008,
        1,
        0.99985849857330322
      ],
      "min": [
        -0.99992036819458008,
        -1,
        -0.99999785423278809
      ],
      "type": "VEC3"
    },
    {
      "bufferView": 3,
      "byteOffset": 25968,
      "componentType": 5126,
      "count": 9994,
      "max": [
        1,
        1,
        1,
        1
      ],
      "min": [
        -1,
        -1,
        -0.43765673041343689,
        -1
      ],
      "type": "VEC4"
    },
    {
      "bufferView": 1,
      "byteOffset": 34624,
      "componentType": 5126,
      "count": 9994,
      "max": [
        0.99800801277160645,
        0.99153298139572144
      ],
      "min": [
        0.0019920000340789557,
        0.0021100000012665987
      ],
      "type": "VEC2"
    },
    {
      "bufferView": 0,
      "byteOffset": 75948,
      "componentType": 5125,
      "count": 28446,
      "max": [
        9993
      ],
      "min": [
        0
      ],
      "type": "SCALAR"
    },
    {
      "bufferView": 2,
      "byteOffset": 343728,
      "componentType": 5126,
      "count": 3856,
      "max": [
        0.89148998260498047,
        1.0899419784545898,
        1.1656589508056641
      ],
      "min": [
        -0.89465802907943726,
        0.99475002288818359,
        0.013020999729633331
      ],
      "type": "VEC3"
    },
    {
      "bufferView": 2,
      "byteOffset": 390000,
      "componentType": 5126,
      "count": 3856,
      "max": [
        1,
        1,
        0.99999809265136719
      ],
      "min": [
        -1,
        -1,
        -0.99999809265136719
      ],
      "type": "VEC3"
    },
    {
      "bufferView": 3,
      "byteOffset": 185872,
      "componentType": 5126,
      "count": 3856,
      "max": [
        1,
        1,
        0.99999845027923584,
        1
      ],
      "min": [
        -0.99995982646942139,
        -1,
        -0.9999622106552124,
        -1
      ],
      "type": "VEC4"
    },
    {
      "bufferView": 1,
      "byteOffset": 114576,
      "componentType": 5126,
      "count": 3856,
      "max": [
        0.99732202291488647,
        0.98091697692871094
      ],
      "min": [
        0.0019920000340789557,
        0.0019789999350905418
      ],
      "type": "VEC2"
    },
    {
      "bufferView": 0,
      "byteOffset": 189732,
      "componentType": 5125,
      "count": 8154,
      "max": [
        3855
      ],
      "min": [
        0
      ],
      "type": "SCALAR"
    },
    {
      "bufferView": 2,
      "byteOffset": 436272,
      "componentType": 5126,
      "count": 890,
      "max": [
        0.6280980110168457,
        1.0280840396881104,
        0.6988530158996582
      ],
      "min": [
        -0.6839519739151001,
        0.57622599601745605,
        0.3637239933013916
      ],
      "type": "VEC3"
    },
    {
      "bufferView": 2,
      "byteOffset": 446952,
      "componentType": 5126,
      "count": 890,
      "max": [
        0.99983125925064087,
        0.99896836280822754,
        0.99983900785446167
      ],
      "min": [
        -0.99973690509796143,
        -0.99983245134353638,
        -0.99999988079071045
      ],
      "type": "VEC3"
    },
    {
      "bufferView": 3,
      "byteOffset": 247568,
      "componentType": 5126,
      "count": 890,
      "max": [
        0.69633537530899048,
        0.99984133243560791,
        0.99970102310180664,
        1
      ],
      "min": [
        -0.69744277000427246,
        -0.99991202354431152,
        -0.99991953372955322,
        1
      ],
      "type": "VEC4"
    },
    {
      "bufferView": 1,
      "byteOffset": 145424,
      "componentType": 5126,
      "count": 890,
      "max": [
        0.99383997917175293,
        0.97458797693252563
      ],
      "min": [
        0.0076790000312030315,
        0.029332999140024185
      ],
      "type": "VEC2"
    },
    {
      "bufferView": 0,
      "byteOffset": 222348,
      "componentType": 5125,
      "count": 4692,
      "max": [
        889
      ],
      "min": [
        0
      ],
      "type": "SCALAR"
    },
    {
      "bufferView": 2,
      "byteOffset": 457632,
      "componentType": 5126,
      "count": 402,
      "max": [
        0.80579698085784912,
        1.0628060102462769,
        0.21981999278068542
      ],
      "min": [
        -0.81266200542449951,
        -1.0089089870452881,
        0.088613003492355347
      ],
      "type": "VEC3"
    },
    {
      "bufferView": 2,
      "byteOffset": 462456,
      "componentType": 5126,
      "count": 402,
      "max": [
        0.99783599376678467,
        1,
        0.99885636568069458
      ],
      "min": [
        -0.99783611297607422,
        -1,
        -0.99937033653259277
      ],
      "type": "VEC3"
    },
    {
      "bufferView": 1,
      "byteOffset": 152544,
      "componentType": 5126,
      "count": 402,
      "max": [
        0.9887009859085083,
        0.98809099197387695
      ],
      "min": [
        0.013663000427186489,
        0.0091829998418688774
      ],
      "type": "VEC2"
    },
    {
      "bufferView": 0,
      "byteOffset": 241116,
      "componentType": 5125,
      "count": 1026,
      "max": [
        401
      ],
      "min": [
        0
      ],
      "type": "SCALAR"
    }
  ],
  "asset": {
    "extras": {
      "author": "Maxmalow (https://sketchfab.com/Maxmalow)",
      "license": "CC-BY-4.0 (http://creativecommons.org/licenses/by/4.0/)",
      "source": "https://sketchfab.com/3d-models/bed-8e77fe0f95e84ca6943e8636bc042570",
      "title": "Bed"
    },
    "generator": "Sketchfab-9.10.0",
    "version": "2.0"
  },
  "bufferViews": [
    {
      "buffer": 0,
      "byteLength": 245220,
      "byteOffset": 0,
      "name": "floatBufferViews",
      "target": 34963
    },
    {
      "buffer": 0,
      "byteLength": 155760,
      "byteOffset": 245220,
      "byteStride": 8,
      "name": "floatBufferViews",
      "target": 34962
    },
    {
      "buffer": 0,
      "byteLength": 467280,
      "byteOffset": 400980,
      "byteStride": 12,
      "name": "floatBufferViews",
      "target": 34962
    },
    {
      "buffer": 0,
      "byteLength": 261808,
      "byteOffset": 868260,
      "byteStride": 16,
      "name": "floatBufferViews",
      "target": 34962
    }
  ],
  "buffers": [
    {
      "byteLength": 1130068,
      "uri": "scene.bin"
    }
  ],
  "images": [
    {
      "uri": "textures/lambert3SG_baseColor.png"
    },
    {
      "uri": "textures/lambert3SG_normal.png"
    },
    {
      "uri": "textures/lambert4SG_baseColor.png"
    },
    {
      "uri": "textures/lambert4SG_metallicRoughness.png"
    },
    {
      "uri": "textures/lambert4SG_normal.png"
    },
    {
      "uri": "textures/lambert5SG_baseColor.png"
    },
    {
      "uri": "textures/lambert5SG_normal.png"
    },
    {
      "uri": "textures/lambert6SG_baseColor.png"
    },
    {
      "uri": "textures/lambert7SG_baseColor.png"
    },
    {
      "uri": "textures/lambert8SG_baseColor.png"
    },
    {
      "uri": "textures/lambert8SG_normal.png"
    },
    {
      "uri": "textures/lambert9SG_baseColor.png"
    }
  ],
  "materials": [
    {
      "doubleSided": true,
      "emissiveFactor": [
        0,
        0,
        0
      ],
      "name": "lambert3SG",
      "normalTexture": {
        "index": 1,
        "scale": 1,
        "texCoord": 0
      },
      "pbrMetallicRoughness": {
        "baseColorFactor": [
          1,
          1,
          1,
          1
        ],
        "baseColorTexture": {
          "index": 0,
          "texCoord": 0
        },
        "metallicFactor": 0,
        "roughnessFactor": 0.5
      }
    },
    {
      "doubleSided": true,
      "name": "lambert4SG",
      "normalTexture": {
        "index": 4,
        "scale": 1,
        "texCoord": 0
      },
      "pbrMetallicRoughness": {
        "baseColorFactor": [
          1,
          1,
          1,
          1
        ],
        "baseColorTexture": {
          "index": 2,
          "texCoord": 0
        },
        "metallicFactor": 0,
        "metallicRoughnessTexture": {
          "index": 3,
          "texCoord": 0
        },
        "roughnessFactor": 0.5
      }
    },
    {
      "doubleSided": true,
      "name": "lambert5SG",
      "normalTexture": {
        "index": 6,
        "scale": 1,
        "texCoord": 0
      },
      "pbrMetallicRoughness": {
        "baseColorFactor": [
          1,
          1,
          1,
          1
        ],
        "baseColorTexture": {
          "index": 5,
          "texCoord": 0
        },
        "metallicFactor": 0,
        "roughnessFactor": 0.5
      }
    },
    {
      "doubleSided": true,
      "name": "lambert6SG",
      "pbrMetallicRoughness": {
        "baseColorFactor": [
          1,
          1,
          1,
          1
        ],
        "baseColorTexture": {
          "index": 7,
          "texCoord": 0
        },
        "metallicFactor": 0,
        "roughnessFactor": 1
      }
    },
    {
      "doubleSided": true,
      "emissiveFactor": [
        0,
        0,
        0
      ],
      "name": "lambert7SG",
      "pbrMetallicRoughness": {
        "baseColorFactor": [
          1,
          1,
          1,
          1
        ],
        "baseColorTexture": {
          "index": 8,
          "texCoord": 0
        },
        "metallicFactor": 0,
        "roughnessFactor": 1
      }
    },
    {
      "doubleSided": true,
      "name": "lambert8SG",
      "normalTexture": {
        "index": 10,
        "scale": 1,
        "texCoord": 0
      },
      "pbrMetallicRoughness": {
        "baseColorFactor": [
          1,
          1,
          1,
          1
        ],
        "baseColorTexture": {
          "index": 9,
          "texCoord": 0
        },
        "metallicFactor": 0,
        "roughnessFactor": 1
      }
    },
    {
      "doubleSided": true,
      "emissiveFactor": [
        0,
        0,
        0
      ],
      "name": "lambert9SG",
      "pbrMetallicRoughness": {
        "baseColorFactor": [
          1,
          1,
          1,
          1
        ],
        "baseColorTexture": {
          "index": 11,
          "texCoord": 0
        },
        "metallicFactor": 0,
        "roughnessFactor": 1
      }
    }
  ],
  "meshes": [
    {
      "primitives": [
        {
          "attributes": {
            "NORMAL": 1,
            "POSITION": 0,
            "TANGENT": 2,
            "TEXCOORD_0": 3
          },
          "indices": 4,
          "material": 0,
          "mode": 4
        }
      ]
    },
    {
      "primitives": [
        {
          "attributes": {
            "NORMAL": 6,
            "POSITION": 5,
            "TEXCOORD_0": 7
          },
          "indices": 8,
          "material": 3,
          "mode": 4
        }
      ]
    },
    {
      "primitives": [
        {
          "attributes": {
            "NORMAL": 10,
            "POSITION": 9,
            "TEXCOORD_0": 11
          },
          "indices": 12,
          "material": 4,
          "mode": 4
        }
      ]
    },
    {
      "primitives": [
        {
          "attributes": {
            "NORMAL": 14,
            "POSITION": 13,
            "TANGENT": 15,
            "TEXCOORD_0": 16
          },
          "indices": 17,
          "material": 1,
          "mode": 4
        }
      ]
    },
    {
      "primitives": [
        {
          "attributes": {
            "NORMAL": 19,
            "POSITION": 18,
            "TANGENT": 20,
            "TEXCOORD_0": 21
          },
          "indices": 22,
          "material": 2,
          "mode": 4
        }
      ]
    },
    {
      "primitives": [
        {
          "attributes": {
            "NORMAL": 24,
            "POSITION": 23,
            "TANGENT": 25,
            "TEXCOORD_0": 26
          },
          "indices": 27,
          "material": 2,
          "mode": 4
        }
      ]
    },
    {
      "primitives": [
        {
          "attributes": {
            "NORMAL": 29,
            "POSITION": 28,
            "TANGENT": 30,
            "TEXCOORD_0": 31
          },
          "indices": 32,
          "material": 5,
          "mode": 4
        }
      ]
    },
    {
      "primitives": [
        {
          "attributes": {
            "NORMAL": 34,
            "POSITION": 33,
            "TEXCOORD_0": 35
          },
          "indices": 36,
          "material": 6,
          "mode": 4
        }
      ]
    }
  ],
  "nodes": [
    {
      "children": [
        1
      ],
      "name": "RootNode (gltf orientation matrix)",
      "rotation": [
        -0.70710678118654746,
        -0,
        -0,
        0.70710678118654757
      ]
    },
    {
      "children": [
        2
      ],
      "name": "RootNode (model correction matrix)"
    },
    {
      "children": [
        3,
        4,
        5,
        6,
        7,
        8,
        9,
        10
      ],
      "name": "Bed_Final.obj.cleaner.materialmerger.gles"
    },
    {
      "mesh": 0,
      "name": ""
    },
    {
      "mesh": 1,
      "name": ""
    },
    {
      "mesh": 2,
      "name": ""
    },
    {
      "mesh": 3,
      "name": ""
    },
    {
      "mesh": 4,
      "name": ""
    },
    {
      "mesh": 5,
      "name": ""
    },
    {
      "mesh": 6,
      "name": ""
    },
    {
      "mesh": 7,
      "name": ""
    }
  ],
  "samplers": [
    {
      "magFilter": 9729,
      "minFilter": 9987,
      "wrapS": 10497,
      "wrapT": 10497
    }
  ],
  "scene": 0,
  "scenes": [
    {
      "name": "OSG_Scene",
      "nodes": [
        0
      ]
    }
  ],
  "textures": [
    {
      "sampler": 0,
      "source": 0
    },
    {
      "sampler": 0,
      "source": 1
    },
    {
      "sampler": 0,
      "source": 2
    },
    {
      "sampler": 0,
      "source": 3
    },
    {
      "sampler": 0,
      "source": 4
    },
    {
      "sampler": 0,
      "source": 5
    },
    {
      "sampler": 0,
      "source": 6
    },
    {
      "sampler": 0,
      "source": 7
    },
    {
      "sampler": 0,
      "source": 8
    },
    {
      "sampler": 0,
      "source": 9
    },
    {
      "sampler": 0,
      "source": 10
    },
    {
      "sampler": 0,
      "source": 11
    }
  ]
}

